# Blender 5.1.2
# www.blender.org
o CF_IvyTownhouseWhite_WindowLighting
v -0.691600 2.409600 4.075000
v -0.443000 2.409600 4.075000
v -0.443000 2.938500 4.075000
v -0.691600 2.938500 4.075000
v -0.691600 3.061500 4.075000
v -0.443000 3.061500 4.075000
v -0.443000 3.590400 4.075000
v -0.691600 3.590400 4.075000
v -0.377000 2.409600 4.075000
v -0.128400 2.409600 4.075000
v -0.128400 2.938500 4.075000
v -0.377000 2.938500 4.075000
v -0.377000 3.061500 4.075000
v -0.128400 3.061500 4.075000
v -0.128400 3.590400 4.075000
v -0.377000 3.590400 4.075000
v -2.378800 2.547200 4.075000
v -2.141500 2.547200 4.075000
v -2.141500 3.024500 4.075000
v -2.378800 3.024500 4.075000
v -2.378800 3.135500 4.075000
v -2.141500 3.135500 4.075000
v -2.141500 3.612800 4.075000
v -2.378800 3.612800 4.075000
v -2.078500 2.547200 4.075000
v -1.841200 2.547200 4.075000
v -1.841200 3.024500 4.075000
v -2.078500 3.024500 4.075000
v -2.078500 3.135500 4.075000
v -1.841200 3.135500 4.075000
v -1.841200 3.612800 4.075000
v -2.078500 3.612800 4.075000
v -0.626000 5.256000 4.075000
v -0.400000 5.256000 4.075000
v -0.400000 5.707500 4.075000
v -0.626000 5.707500 4.075000
v -0.626000 5.812500 4.075000
v -0.400000 5.812500 4.075000
v -0.400000 6.264000 4.075000
v -0.626000 6.264000 4.075000
v -0.340000 5.256000 4.075000
v -0.114000 5.256000 4.075000
v -0.114000 5.707500 4.075000
v -0.340000 5.707500 4.075000
v -0.340000 5.812500 4.075000
v -0.114000 5.812500 4.075000
v -0.114000 6.264000 4.075000
v -0.340000 6.264000 4.075000
v -2.386000 5.256000 4.075000
v -2.160000 5.256000 4.075000
v -2.160000 5.707500 4.075000
v -2.386000 5.707500 4.075000
v -2.386000 5.812500 4.075000
v -2.160000 5.812500 4.075000
v -2.160000 6.264000 4.075000
v -2.386000 6.264000 4.075000
v -2.100000 5.256000 4.075000
v -1.874000 5.256000 4.075000
v -1.874000 5.707500 4.075000
v -2.100000 5.707500 4.075000
v -2.100000 5.812500 4.075000
v -1.874000 5.812500 4.075000
v -1.874000 6.264000 4.075000
v -2.100000 6.264000 4.075000
v 1.221200 5.261600 4.075000
v 1.458500 5.261600 4.075000
v 1.458500 5.726000 4.075000
v 1.221200 5.726000 4.075000
v 1.221200 5.834000 4.075000
v 1.458500 5.834000 4.075000
v 1.458500 6.298400 4.075000
v 1.221200 6.298400 4.075000
v 1.521500 5.261600 4.075000
v 1.758800 5.261600 4.075000
v 1.758800 5.726000 4.075000
v 1.521500 5.726000 4.075000
v 1.521500 5.834000 4.075000
v 1.758800 5.834000 4.075000
v 1.758800 6.298400 4.075000
v 1.521500 6.298400 4.075000
v -0.626000 8.072800 4.075000
v -0.400000 8.072800 4.075000
v -0.400000 8.563000 4.075000
v -0.626000 8.563000 4.075000
v -0.626000 8.677000 4.075000
v -0.400000 8.677000 4.075000
v -0.400000 9.167200 4.075000
v -0.626000 9.167200 4.075000
v -0.340000 8.072800 4.075000
v -0.114000 8.072800 4.075000
v -0.114000 8.563000 4.075000
v -0.340000 8.563000 4.075000
v -0.340000 8.677000 4.075000
v -0.114000 8.677000 4.075000
v -0.114000 9.167200 4.075000
v -0.340000 9.167200 4.075000
v -2.378800 8.032800 4.075000
v -2.141500 8.032800 4.075000
v -2.141500 8.523000 4.075000
v -2.378800 8.523000 4.075000
v -2.378800 8.637000 4.075000
v -2.141500 8.637000 4.075000
v -2.141500 9.127200 4.075000
v -2.378800 9.127200 4.075000
v -2.078500 8.032800 4.075000
v -1.841200 8.032800 4.075000
v -1.841200 8.523000 4.075000
v -2.078500 8.523000 4.075000
v -2.078500 8.637000 4.075000
v -1.841200 8.637000 4.075000
v -1.841200 9.127200 4.075000
v -2.078500 9.127200 4.075000
v 1.221200 8.072800 4.075000
v 1.458500 8.072800 4.075000
v 1.458500 8.563000 4.075000
v 1.221200 8.563000 4.075000
v 1.221200 8.677000 4.075000
v 1.458500 8.677000 4.075000
v 1.458500 9.167200 4.075000
v 1.221200 9.167200 4.075000
v 1.521500 8.072800 4.075000
v 1.758800 8.072800 4.075000
v 1.758800 8.563000 4.075000
v 1.521500 8.563000 4.075000
v 1.521500 8.677000 4.075000
v 1.758800 8.677000 4.075000
v 1.758800 9.167200 4.075000
v 1.521500 9.167200 4.075000
vn -0.0000 -0.0000 1.0000
s 0
f 1//1 2//1 3//1 4//1
f 5//1 6//1 7//1 8//1
f 9//1 10//1 11//1 12//1
f 13//1 14//1 15//1 16//1
f 17//1 18//1 19//1 20//1
f 21//1 22//1 23//1 24//1
f 25//1 26//1 27//1 28//1
f 29//1 30//1 31//1 32//1
f 33//1 34//1 35//1 36//1
f 37//1 38//1 39//1 40//1
f 41//1 42//1 43//1 44//1
f 45//1 46//1 47//1 48//1
f 49//1 50//1 51//1 52//1
f 53//1 54//1 55//1 56//1
f 57//1 58//1 59//1 60//1
f 61//1 62//1 63//1 64//1
f 65//1 66//1 67//1 68//1
f 69//1 70//1 71//1 72//1
f 73//1 74//1 75//1 76//1
f 77//1 78//1 79//1 80//1
f 81//1 82//1 83//1 84//1
f 85//1 86//1 87//1 88//1
f 89//1 90//1 91//1 92//1
f 93//1 94//1 95//1 96//1
f 97//1 98//1 99//1 100//1
f 101//1 102//1 103//1 104//1
f 105//1 106//1 107//1 108//1
f 109//1 110//1 111//1 112//1
f 113//1 114//1 115//1 116//1
f 117//1 118//1 119//1 120//1
f 121//1 122//1 123//1 124//1
f 125//1 126//1 127//1 128//1
